<svg width="31" height="32" viewBox="0 0 31 32" fill="none" xmlns="http://www.w3.org/2000/svg">
<path d="M16.2332 27.1345H8.26616C4.28263 27.1345 2.95898 24.4009 2.95898 21.6544V10.6943C2.95898 6.58102 4.28263 5.21426 8.26616 5.21426H16.2332C20.2168 5.21426 21.5404 6.58102 21.5404 10.6943V21.6544C21.5404 25.7677 20.2041 27.1345 16.2332 27.1345V27.1345Z" stroke="black" stroke-width="1.5" stroke-linecap="round" stroke-linejoin="round"/>
<path d="M25.045 22.8129L21.5405 20.2746V12.0611L25.045 9.52279C26.7594 8.2862 28.1713 9.04117 28.1713 11.215V21.1337C28.1713 23.3075 26.7594 24.0625 25.045 22.8129ZM14.9349 14.8727C15.4364 14.8727 15.9173 14.667 16.2719 14.3008C16.6266 13.9346 16.8258 13.438 16.8258 12.9202C16.8258 12.4023 16.6266 11.9057 16.2719 11.5395C15.9173 11.1734 15.4364 10.9677 14.9349 10.9677C14.4334 10.9677 13.9524 11.1734 13.5978 11.5395C13.2432 11.9057 13.0439 12.4023 13.0439 12.9202C13.0439 13.438 13.2432 13.9346 13.5978 14.3008C13.9524 14.667 14.4334 14.8727 14.9349 14.8727Z" stroke="black" stroke-width="1.5" stroke-linecap="round" stroke-linejoin="round"/>
</svg>
