<svg width="53" height="54" viewBox="0 0 53 54" fill="none" xmlns="http://www.w3.org/2000/svg">
<path d="M38.2733 19.0478C39.6746 19.0478 41.0184 18.473 42.0092 17.4499C43 16.4268 43.5567 15.0392 43.5567 13.5923C43.5567 12.1454 43 10.7578 42.0092 9.73471C41.0184 8.71161 39.6746 8.13684 38.2733 8.13684C36.8721 8.13684 35.5282 8.71161 34.5374 9.73471C33.5466 10.7578 32.99 12.1454 32.99 13.5923C32.99 15.0392 33.5466 16.4268 34.5374 17.4499C35.5282 18.473 36.8721 19.0478 38.2733 19.0478V19.0478ZM14.4767 19.0478C15.878 19.0478 17.2218 18.473 18.2126 17.4499C19.2034 16.4268 19.7601 15.0392 19.7601 13.5923C19.7601 12.1454 19.2034 10.7578 18.2126 9.73471C17.2218 8.71161 15.878 8.13684 14.4767 8.13684C13.0755 8.13684 11.7316 8.71161 10.7408 9.73471C9.75 10.7578 9.19336 12.1454 9.19336 13.5923C9.19336 15.0392 9.75 16.4268 10.7408 17.4499C11.7316 18.473 13.0755 19.0478 14.4767 19.0478V19.0478ZM38.2733 46.3251C38.9671 46.3251 39.6542 46.184 40.2952 45.9098C40.9362 45.6356 41.5186 45.2338 42.0092 44.7272C42.4998 44.2206 42.889 43.6192 43.1545 42.9573C43.42 42.2954 43.5567 41.586 43.5567 40.8696C43.5567 40.1532 43.42 39.4438 43.1545 38.7819C42.889 38.12 42.4998 37.5186 42.0092 37.012C41.5186 36.5054 40.9362 36.1036 40.2952 35.8294C39.6542 35.5553 38.9671 35.4141 38.2733 35.4141C36.8721 35.4141 35.5282 35.9889 34.5374 37.012C33.5466 38.0351 32.99 39.4227 32.99 40.8696C32.99 42.3165 33.5466 43.7041 34.5374 44.7272C35.5282 45.7503 36.8721 46.3251 38.2733 46.3251V46.3251ZM14.4767 46.3251C15.1705 46.3251 15.8576 46.184 16.4986 45.9098C17.1396 45.6356 17.722 45.2338 18.2126 44.7272C18.7032 44.2206 19.0924 43.6192 19.3579 42.9573C19.6234 42.2954 19.7601 41.586 19.7601 40.8696C19.7601 40.1532 19.6234 39.4438 19.3579 38.7819C19.0924 38.12 18.7032 37.5186 18.2126 37.012C17.722 36.5054 17.1396 36.1036 16.4986 35.8294C15.8576 35.5553 15.1705 35.4141 14.4767 35.4141C13.0755 35.4141 11.7316 35.9889 10.7408 37.012C9.75 38.0351 9.19336 39.4227 9.19336 40.8696C9.19336 42.3165 9.75 43.7041 10.7408 44.7272C11.7316 45.7503 13.0755 46.3251 14.4767 46.3251V46.3251Z" stroke="#212121" stroke-width="1.5" stroke-miterlimit="10" stroke-linecap="round" stroke-linejoin="round"/>
</svg>
