<svg width="82" height="71" viewBox="0 0 82 71" fill="none" xmlns="http://www.w3.org/2000/svg">
<g filter="url(#filter0_d_14_10)">
<path d="M11.871 6.05856C19.2776 0.00375319 27.9618 -0.0279913 41.0853 0.00375366C54.141 0.0353344 62.6987 0.00375381 70.0994 6.05856C91.4438 23.521 61.8956 63 41.0853 63C20.275 63 -9.47444 23.5083 11.871 6.05856Z" fill="#38D601"/>
<path d="M27.6088 22.6936C29.1095 24.7578 29.3838 27.8584 26.6748 28.7924C24.4682 29.5531 22.1744 28.931 20.9856 26.9211C19.7968 24.9113 19.627 20.8917 21.6649 20.2679C23.7028 19.6442 26.2844 20.872 27.6088 22.6936Z" fill="white"/>
<path d="M38.6551 17.5436C38.7395 18.999 37.3279 22.6121 34.3246 22.7414C31.2051 22.8757 29.1449 19.9692 29.4845 17.5436C29.8242 15.1179 31.0445 11.7925 34.3246 11.9299C37.4944 12.0627 38.5707 16.0882 38.6551 17.5436Z" fill="white"/>
<path d="M47.1464 22.7414C44.215 22.7729 42.646 19.6227 42.646 17.8208C42.646 16.0189 43.8364 12.1468 47.1464 12.0685C50.6538 11.9857 51.9015 16.504 51.7316 18.3752C51.5618 20.2464 49.8976 22.7118 47.1464 22.7414Z" fill="white"/>
<path d="M54.8734 28.8402C57.0292 29.6693 59.0893 28.5671 60.5625 27.0382C62.6298 24.893 61.7513 20.6623 59.4587 20.1078C57.166 19.5534 53.84 21.4779 53.0902 23.9196C52.4933 25.8633 52.6524 27.986 54.8734 28.8402Z" fill="white"/>
<path d="M40.5069 25.2405C32.695 25.5176 27.0908 33.0717 25.0529 36.0519C23.0149 39.0322 25.6627 43.8646 29.9778 44.1605C32.2604 44.3171 33.1218 42.388 35.4122 42.3586C37.7951 42.3281 38.7183 44.1806 41.1013 44.1605C43.4227 44.1409 44.2992 42.3685 46.6206 42.3586C48.9729 42.3486 49.3378 44.1605 52.2249 44.1605C55.1119 44.1605 59.4424 40.3487 56.8101 36.0519C54.1778 31.7552 48.3188 24.9634 40.5069 25.2405Z" fill="white"/>
</g>
<defs>
<filter id="filter0_d_14_10" x="0.5" y="0" width="81" height="71" filterUnits="userSpaceOnUse" color-interpolation-filters="sRGB">
<feFlood flood-opacity="0" result="BackgroundImageFix"/>
<feColorMatrix in="SourceAlpha" type="matrix" values="0 0 0 0 0 0 0 0 0 0 0 0 0 0 0 0 0 0 127 0" result="hardAlpha"/>
<feOffset dy="4"/>
<feGaussianBlur stdDeviation="2"/>
<feComposite in2="hardAlpha" operator="out"/>
<feColorMatrix type="matrix" values="0 0 0 0 0 0 0 0 0 0 0 0 0 0 0 0 0 0 0.25 0"/>
<feBlend mode="normal" in2="BackgroundImageFix" result="effect1_dropShadow_14_10"/>
<feBlend mode="normal" in="SourceGraphic" in2="effect1_dropShadow_14_10" result="shape"/>
</filter>
</defs>
</svg>
