<svg width="188" height="199" viewBox="0 0 188 199" fill="none" xmlns="http://www.w3.org/2000/svg">
<g clip-path="url(#clip0_9_17)">
<g filter="url(#filter0_d_9_17)">
<path d="M19.3518 18.9848C38.2945 0.0117608 60.5047 -0.0877121 94.0689 0.0117623C127.46 0.110722 149.346 0.0117628 168.274 18.9848C222.863 73.7044 147.292 197.414 94.0689 197.414C40.8454 197.414 -35.2404 73.6645 19.3518 18.9848Z" fill="#84E708" fill-opacity="0.82"/>
<path d="M59.602 71.1115C63.4401 77.5798 64.1417 87.2957 57.2131 90.2223C51.5696 92.6061 45.7032 90.6567 42.6628 84.3588C39.6225 78.0609 39.1881 65.4651 44.4002 63.5106C49.6123 61.5562 56.2149 65.4034 59.602 71.1115Z" fill="white"/>
<path d="M87.8536 54.9739C88.0694 59.5344 84.4593 70.8563 76.778 71.2615C68.7998 71.6823 63.5307 62.5748 64.3994 54.9739C65.2681 47.373 68.389 36.9526 76.778 37.3832C84.8851 37.7994 87.6377 50.4133 87.8536 54.9739Z" fill="white"/>
<path d="M109.57 71.2615C102.073 71.3602 98.0605 61.4889 98.0605 55.8425C98.0605 50.1961 101.105 38.0626 109.57 37.8175C118.541 37.5578 121.732 51.7163 121.298 57.5799C120.863 63.4434 116.607 71.1688 109.57 71.2615Z" fill="white"/>
<path d="M129.333 90.3723C134.846 92.9704 140.115 89.5168 143.883 84.7259C149.17 78.0037 146.923 64.7464 141.06 63.0091C135.196 61.2717 126.69 67.3023 124.772 74.9533C123.246 81.0443 123.652 87.6957 129.333 90.3723Z" fill="white"/>
<path d="M92.5897 79.0924C72.6104 79.9606 58.2772 103.632 53.0651 112.971C47.853 122.309 54.6247 137.452 65.6609 138.379C71.4989 138.87 73.7017 132.825 79.5596 132.733C85.654 132.637 88.0152 138.442 94.1099 138.379C100.047 138.318 102.289 132.764 108.226 132.733C114.242 132.701 115.175 138.379 122.559 138.379C129.943 138.379 141.018 126.435 134.286 112.971C127.554 99.5067 112.569 78.2242 92.5897 79.0924Z" fill="white"/>
</g>
</g>
<defs>
<filter id="filter0_d_9_17" x="-3.5" y="0" width="194.702" height="205.414" filterUnits="userSpaceOnUse" color-interpolation-filters="sRGB">
<feFlood flood-opacity="0" result="BackgroundImageFix"/>
<feColorMatrix in="SourceAlpha" type="matrix" values="0 0 0 0 0 0 0 0 0 0 0 0 0 0 0 0 0 0 127 0" result="hardAlpha"/>
<feOffset dy="4"/>
<feGaussianBlur stdDeviation="2"/>
<feComposite in2="hardAlpha" operator="out"/>
<feColorMatrix type="matrix" values="0 0 0 0 0 0 0 0 0 0 0 0 0 0 0 0 0 0 0.25 0"/>
<feBlend mode="normal" in2="BackgroundImageFix" result="effect1_dropShadow_9_17"/>
<feBlend mode="normal" in="SourceGraphic" in2="effect1_dropShadow_9_17" result="shape"/>
</filter>
<clipPath id="clip0_9_17">
<rect width="186.701" height="199" fill="white" transform="translate(0.5)"/>
</clipPath>
</defs>
</svg>
