<svg width="103" height="80" viewBox="0 0 103 80" fill="none" xmlns="http://www.w3.org/2000/svg">
<g filter="url(#filter0_d_36_437)">
<path d="M13.5545 6.92407C23.1551 0.00428936 34.4117 -0.03199 51.4228 0.0042899C68.3458 0.0403822 79.4386 0.00429007 89.0316 6.92407C116.699 26.8812 78.3976 72 51.4228 72C24.4479 72 -14.114 26.8666 13.5545 6.92407Z" fill="#84E708" fill-opacity="0.5"/>
<path d="M33.9541 25.9355C35.8994 28.2946 36.255 31.8381 32.7434 32.9055C29.8832 33.7749 26.91 33.0639 25.369 30.767C23.8281 28.47 23.6079 23.8761 26.2495 23.1633C28.8911 22.4505 32.2375 23.8536 33.9541 25.9355Z" fill="white"/>
<path d="M48.2728 20.0498C48.3822 21.7131 46.5526 25.8424 42.6595 25.9902C38.616 26.1436 35.9455 22.822 36.3857 20.0498C36.826 17.2777 38.4078 13.4772 42.6595 13.6342C46.7684 13.786 48.1634 18.3865 48.2728 20.0498Z" fill="white"/>
<path d="M59.2794 25.9902C55.4797 26.0262 53.446 22.426 53.446 20.3666C53.446 18.3073 54.9889 13.882 59.2794 13.7926C63.8259 13.6979 65.4431 18.8617 65.223 21.0003C65.0029 23.1388 62.8457 25.9564 59.2794 25.9902Z" fill="white"/>
<path d="M69.2954 32.9602C72.0898 33.9078 74.7601 32.6482 76.6698 30.9009C79.3494 28.4492 78.2107 23.614 75.239 22.9804C72.2672 22.3468 67.956 24.5462 66.984 27.3367C66.2103 29.5581 66.4165 31.984 69.2954 32.9602Z" fill="white"/>
<path d="M50.6732 28.8462C40.5472 29.1629 33.2828 37.7962 30.6412 41.2022C27.9996 44.6081 31.4317 50.131 37.025 50.4691C39.9839 50.648 41.1003 48.4434 44.0692 48.4098C47.158 48.3749 48.3547 50.4921 51.4436 50.4691C54.4526 50.4467 55.5888 48.4211 58.5979 48.4098C61.647 48.3983 62.12 50.4691 65.8622 50.4691C69.6045 50.4691 75.2178 46.1127 71.8058 41.2022C68.3938 36.2916 60.7992 28.5296 50.6732 28.8462Z" fill="white"/>
</g>
<defs>
<filter id="filter0_d_36_437" x="0" y="0" width="102.625" height="80" filterUnits="userSpaceOnUse" color-interpolation-filters="sRGB">
<feFlood flood-opacity="0" result="BackgroundImageFix"/>
<feColorMatrix in="SourceAlpha" type="matrix" values="0 0 0 0 0 0 0 0 0 0 0 0 0 0 0 0 0 0 127 0" result="hardAlpha"/>
<feOffset dy="4"/>
<feGaussianBlur stdDeviation="2"/>
<feComposite in2="hardAlpha" operator="out"/>
<feColorMatrix type="matrix" values="0 0 0 0 0 0 0 0 0 0 0 0 0 0 0 0 0 0 0.25 0"/>
<feBlend mode="normal" in2="BackgroundImageFix" result="effect1_dropShadow_36_437"/>
<feBlend mode="normal" in="SourceGraphic" in2="effect1_dropShadow_36_437" result="shape"/>
</filter>
</defs>
</svg>
