<svg width="24" height="24" viewBox="0 0 24 24" fill="none" xmlns="http://www.w3.org/2000/svg">
<g clip-path="url(#clip0_33_321)">
<path d="M6 9.66803C4.9 9.66803 4 10.5267 4 11.5761C4 12.6255 4.9 13.4842 6 13.4842C7.1 13.4842 8 12.6255 8 11.5761C8 10.5267 7.1 9.66803 6 9.66803ZM18 9.66803C16.9 9.66803 16 10.5267 16 11.5761C16 12.6255 16.9 13.4842 18 13.4842C19.1 13.4842 20 12.6255 20 11.5761C20 10.5267 19.1 9.66803 18 9.66803ZM12 9.66803C10.9 9.66803 10 10.5267 10 11.5761C10 12.6255 10.9 13.4842 12 13.4842C13.1 13.4842 14 12.6255 14 11.5761C14 10.5267 13.1 9.66803 12 9.66803Z" fill="#490057"/>
</g>
<defs>
<clipPath id="clip0_33_321">
<rect width="24" height="22.8968" fill="white" transform="translate(0 0.127686)"/>
</clipPath>
</defs>
</svg>
