<svg width="28" height="28" viewBox="0 0 28 28" fill="none" xmlns="http://www.w3.org/2000/svg">
<g clip-path="url(#clip0_33_315)">
<path d="M19.2499 3.72422C17.2199 3.72422 15.2716 4.62579 13.9999 6.05048C12.7283 4.62579 10.7799 3.72422 8.74992 3.72422C5.15659 3.72422 2.33325 6.41778 2.33325 9.84595C2.33325 14.0532 6.29992 17.4814 12.3083 22.6904L13.9999 24.1485L15.6916 22.6793C21.6999 17.4814 25.6666 14.0532 25.6666 9.84595C25.6666 6.41778 22.8433 3.72422 19.2499 3.72422ZM14.1166 21.032L13.9999 21.1433L13.8833 21.032C8.32992 16.2348 4.66659 13.0626 4.66659 9.84595C4.66659 7.61987 6.41659 5.9503 8.74992 5.9503C10.5466 5.9503 12.2966 7.05222 12.9149 8.57708H15.0966C15.7033 7.05222 17.4533 5.9503 19.2499 5.9503C21.5833 5.9503 23.3333 7.61987 23.3333 9.84595C23.3333 13.0626 19.6699 16.2348 14.1166 21.032Z" fill="#A303A0"/>
</g>
<defs>
<clipPath id="clip0_33_315">
<rect width="28" height="26.713" fill="white" transform="translate(0 0.385101)"/>
</clipPath>
</defs>
</svg>
