<svg width="53" height="54" viewBox="0 0 53 54" fill="none" xmlns="http://www.w3.org/2000/svg">
<path d="M19.844 49.4076H32.7303C43.4688 49.4076 47.7642 44.9723 47.7642 33.884V20.578C47.7642 9.48963 43.4688 5.05429 32.7303 5.05429H19.844C9.10547 5.05429 4.81006 9.48963 4.81006 20.578V33.884C4.81006 44.9723 9.10547 49.4076 19.844 49.4076Z" stroke="#212121" stroke-width="1.5" stroke-linecap="round" stroke-linejoin="round"/>
<path d="M6.24902 42.6438L16.8372 35.3033C18.5339 34.1279 20.9823 34.261 22.5072 35.6137L23.2159 36.2569C24.8911 37.7427 27.5972 37.7427 29.2725 36.2569L38.2069 28.3398C39.8821 26.854 42.5882 26.854 44.2635 28.3398L47.7642 31.4445M19.844 22.7956C20.9832 22.7956 22.0758 22.3283 22.8813 21.4965C23.6869 20.6648 24.1394 19.5366 24.1394 18.3603C24.1394 17.184 23.6869 16.0558 22.8813 15.224C22.0758 14.3922 20.9832 13.925 19.844 13.925C18.7048 13.925 17.6122 14.3922 16.8067 15.224C16.0011 16.0558 15.5486 17.184 15.5486 18.3603C15.5486 19.5366 16.0011 20.6648 16.8067 21.4965C17.6122 22.3283 18.7048 22.7956 19.844 22.7956Z" stroke="#212121" stroke-width="1.5" stroke-linecap="round" stroke-linejoin="round"/>
</svg>
