<svg width="53" height="54" viewBox="0 0 53 54" fill="none" xmlns="http://www.w3.org/2000/svg">
<path d="M23.1098 18.3603H29.5529M15.0773 49.4076H37.5853C43.513 49.4076 45.8755 45.6598 46.1547 41.0914L47.2715 22.7735C47.3411 21.6376 47.1843 20.4991 46.811 19.4284C46.4376 18.3576 45.8555 17.3772 45.1006 16.5479C44.3458 15.7186 43.4343 15.058 42.4224 14.6068C41.4105 14.1557 40.3197 13.9236 39.2176 13.925C37.9075 13.925 36.7047 13.1488 36.1034 11.9512L34.557 8.73562C33.5691 6.71754 30.9918 5.05429 28.8012 5.05429H23.8829C21.6708 5.05429 19.0935 6.71754 18.1056 8.73562L16.5592 11.9512C15.9579 13.1488 14.7552 13.925 13.4451 13.925C8.78454 13.925 5.09048 17.9833 5.39116 22.7735L6.50797 41.0914C6.7657 45.6598 9.14965 49.4076 15.0773 49.4076Z" stroke="#212121" stroke-width="1.5" stroke-linecap="round" stroke-linejoin="round"/>
<path d="M26.3311 40.537C30.1755 40.537 33.3112 37.2992 33.3112 33.3296C33.3112 29.3599 30.1755 26.1221 26.3311 26.1221C22.4867 26.1221 19.3511 29.3599 19.3511 33.3296C19.3511 37.2992 22.4867 40.537 26.3311 40.537Z" stroke="#212121" stroke-width="1.5" stroke-linecap="round" stroke-linejoin="round"/>
</svg>
