<svg width="31" height="32" viewBox="0 0 31 32" fill="none" xmlns="http://www.w3.org/2000/svg">
<path d="M27.6954 24.414C27.6954 24.8826 27.5946 25.3642 27.3802 25.8328C27.1659 26.3014 26.8886 26.744 26.523 27.1605C25.9053 27.8634 25.2246 28.3711 24.4556 28.6965C23.6993 29.0219 22.8799 29.1911 21.9974 29.1911C20.7116 29.1911 19.3376 28.8787 17.8878 28.2409C16.4381 27.6031 14.9884 26.744 13.5513 25.6636C12.0867 24.5573 10.7045 23.339 9.41654 22.0189C8.14177 20.6938 6.96604 19.2709 5.89943 17.7624C4.86573 16.2785 4.03373 14.7946 3.42864 13.3237C2.82354 11.8398 2.521 10.421 2.521 9.06722C2.521 8.18209 2.67227 7.336 2.97482 6.55499C3.27736 5.76097 3.7564 5.03203 4.42452 4.3812C5.23131 3.56114 6.11374 3.15762 7.04659 3.15762C7.39956 3.15762 7.75253 3.23572 8.06769 3.39192C8.39544 3.54813 8.68539 3.78243 8.9123 4.12086L11.8369 8.37734C12.0638 8.70276 12.2277 9.00214 12.3412 9.28851C12.4546 9.56186 12.5176 9.83521 12.5176 10.0825C12.5176 10.3949 12.4294 10.7073 12.2529 11.0067C12.089 11.3061 11.8495 11.6185 11.547 11.9309L10.5889 12.9592C10.4502 13.1024 10.3872 13.2716 10.3872 13.4799C10.3872 13.584 10.3998 13.6752 10.425 13.7793C10.4628 13.8834 10.5007 13.9615 10.5259 14.0396C10.7528 14.4692 11.1436 15.0289 11.6982 15.7058C12.2655 16.3826 12.8706 17.0725 13.5261 17.7624C14.2069 18.4523 14.8624 19.0901 15.5305 19.6759C16.186 20.2486 16.7281 20.6391 17.1567 20.8734C17.2197 20.8994 17.2954 20.9385 17.3836 20.9775C17.4845 21.0166 17.5853 21.0296 17.6988 21.0296C17.9131 21.0296 18.0769 20.9515 18.2156 20.8083L19.1737 19.8321C19.4888 19.5067 19.7914 19.2593 20.0813 19.1031C20.3713 18.9209 20.6612 18.8298 20.9763 18.8298C21.2159 18.8298 21.468 18.8818 21.7453 18.999C22.0227 19.1162 22.3126 19.2854 22.6277 19.5067L26.8004 22.5656C27.1281 22.7999 27.355 23.0732 27.4937 23.3987C27.6198 23.7241 27.6954 24.0495 27.6954 24.414V24.414Z" stroke="black" stroke-width="1.5" stroke-miterlimit="10"/>
</svg>
