<svg width="52" height="54" viewBox="0 0 52 54" fill="none" xmlns="http://www.w3.org/2000/svg">
<path d="M30.523 14.3685V22.7956C24.5309 22.9065 22.0395 25.479 21.9322 31.6663H13.7709C7.32774 31.6663 4.75049 29.0051 4.75049 22.3521V14.3685C4.75049 7.71549 7.32774 5.05429 13.7709 5.05429H21.5026C27.9457 5.05429 30.523 7.71549 30.523 14.3685Z" stroke="#212121" stroke-width="1.5" stroke-linecap="round" stroke-linejoin="round"/>
<path d="M15.403 13.6367C14.2647 12.8383 12.7613 12.8383 11.623 13.681M23.9938 13.6367C22.8556 12.8383 21.3522 12.8383 20.2139 13.681M17.9803 25.9447H12.9976C12.3533 25.9447 11.8378 25.4125 11.8378 24.7472C11.8378 21.4429 14.4365 18.7595 17.6366 18.7595C19.0112 18.7595 20.2783 19.2474 21.2663 20.0679" stroke="#212121" stroke-width="1.5" stroke-miterlimit="10" stroke-linecap="round" stroke-linejoin="round"/>
<path d="M47.7046 32.1098V40.0934C47.7046 46.7464 45.1274 49.4076 38.6842 49.4076H30.9525C24.5094 49.4076 21.9321 46.7464 21.9321 40.0934V31.6663C22.0395 25.479 24.5309 22.9065 30.523 22.7956H38.6842C45.1274 22.7956 47.7046 25.4568 47.7046 32.1098Z" stroke="#212121" stroke-width="1.5" stroke-linecap="round" stroke-linejoin="round"/>
<path d="M32.5847 30.8236C31.4464 31.6219 29.943 31.6219 28.8047 30.7792M41.1755 30.8236C40.0372 31.6219 38.5338 31.6219 37.3955 30.7792M30.1792 36.5008H39.4573C40.1016 36.5008 40.6171 37.0331 40.6171 37.6984C40.6171 41.0027 38.0184 43.6861 34.8183 43.6861C31.6182 43.6861 29.0195 41.0027 29.0195 37.6984C29.0195 37.0331 29.5349 36.5008 30.1792 36.5008Z" stroke="#212121" stroke-width="1.5" stroke-miterlimit="10" stroke-linecap="round" stroke-linejoin="round"/>
</svg>
