<svg width="65" height="61" viewBox="0 0 65 61" fill="none" xmlns="http://www.w3.org/2000/svg">
<path d="M24.3748 55.9167H40.6248C54.1665 55.9167 59.5832 50.8333 59.5832 38.125V22.875C59.5832 10.1667 54.1665 5.08333 40.6248 5.08333H24.3748C10.8332 5.08333 5.4165 10.1667 5.4165 22.875V38.125C5.4165 50.8333 10.8332 55.9167 24.3748 55.9167Z" stroke="#212121" stroke-width="1.5" stroke-linecap="round" stroke-linejoin="round"/>
<path d="M7.23145 48.1646L20.5835 39.7517C22.7231 38.4046 25.8106 38.5571 27.7335 40.1075L28.6273 40.8446C30.7398 42.5475 34.1523 42.5475 36.2648 40.8446L47.5314 31.7708C49.6439 30.0679 53.0564 30.0679 55.1689 31.7708L59.5835 35.3292M24.3752 25.4167C25.8118 25.4167 27.1895 24.8811 28.2054 23.9278C29.2212 22.9745 29.7919 21.6815 29.7919 20.3333C29.7919 18.9851 29.2212 17.6922 28.2054 16.7389C27.1895 15.7856 25.8118 15.25 24.3752 15.25C22.9386 15.25 21.5609 15.7856 20.545 16.7389C19.5292 17.6922 18.9585 18.9851 18.9585 20.3333C18.9585 21.6815 19.5292 22.9745 20.545 23.9278C21.5609 24.8811 22.9386 25.4167 24.3752 25.4167Z" stroke="#212121" stroke-width="1.5" stroke-linecap="round" stroke-linejoin="round"/>
</svg>
